<svg xmlns:dc="http://purl.org/dc/elements/1.1/" xmlns:cc="http://web.resource.org/cc/" xmlns:rdf="http://www.w3.org/1999/02/22-rdf-syntax-ns#" xmlns:svg="http://www.w3.org/2000/svg" xmlns="http://www.w3.org/2000/svg" xmlns:sodipodi="http://sodipodi.sourceforge.net/DTD/sodipodi-0.dtd" xmlns:inkscape="http://www.inkscape.org/namespaces/inkscape" width="767.34692" height="800" id="svg1901" sodipodi:version="0.32" inkscape:version="0.45.1" sodipodi:docname="Circuit Monaco.svg" sodipodi:docbase="C:\Documents and Settings\Lada\My Documents\My Pictures\Moottoriradat" version="1.0" inkscape:output_extension="org.inkscape.output.svg.inkscape">
  <defs id="defs1903"/>
  <sodipodi:namedview id="base" pagecolor="#ffffff" bordercolor="#666666" borderopacity="1.0" inkscape:pageopacity="0.0" inkscape:pageshadow="2" inkscape:zoom="0.59389036" inkscape:cx="422.51978" inkscape:cy="368.06489" inkscape:document-units="px" inkscape:current-layer="layer2" gridtolerance="10000" inkscape:window-width="1280" inkscape:window-height="744" inkscape:window-x="-4" inkscape:window-y="-4"/>
  <metadata id="metadata1906">
    <rdf:RDF>
      <cc:Work rdf:about="">
        <dc:format>image/svg+xml</dc:format>
        <dc:type rdf:resource="http://purl.org/dc/dcmitype/StillImage"/>
      </cc:Work>
    </rdf:RDF>
  </metadata>
  <g inkscape:groupmode="layer" id="layer2" inkscape:label="SVG">
    <path style="opacity:1;fill:none;fill-rule:evenodd;stroke:#000000;stroke-width:10.41727352;stroke-linecap:butt;stroke-linejoin:miter;stroke-miterlimit:4;stroke-dasharray:none;stroke-opacity:1" d="M 104.50658,653.97079 C 104.50658,653.97079 84.965034,629.56873 79.834481,596.08515 C 79.834481,596.08515 74.973956,554.23062 75.243997,532.3584 C 75.243997,532.3584 77.404225,475.92227 85.50508,450.80965 C 85.50508,450.80965 93.335916,414.35577 109.26763,387.89296 L 130.86994,353.05921 C 130.86994,353.05921 134.82662,338.97228 148.55254,344.16813 C 148.55254,344.16813 164.35349,348.1987 189.46616,348.1987 L 339.60219,344.95836 C 339.60219,344.95836 350.40331,344.41832 369.57538,337.39752 C 369.57538,337.39752 382.80679,333.6172 398.73845,333.6172 L 464.89557,330.64679 C 464.89557,330.64679 470.02615,332.80707 485.68779,322.27592 L 501.88952,308.50449 C 501.88952,308.50449 510.80047,296.08313 508.91022,291.22263 C 508.91022,291.22263 509.45033,284.20187 507.29006,278.53133 L 486.7679,237.48687 C 486.7679,237.48687 482.17744,228.90319 483.44088,219.42358 C 483.44088,219.42358 483.46952,211.9309 486.48858,209.16245 L 578.03766,122.45467 C 578.03766,122.45467 589.37879,111.92347 595.31947,111.92347 C 595.31947,111.92347 605.04054,109.49323 604.23043,121.10449 C 604.23043,121.10449 603.96043,158.09841 606.9307,172.13996 L 610.98113,190.77187 C 610.98113,190.77187 612.06126,202.38316 621.24229,200.76303 C 621.24229,200.76303 629.07308,200.49299 629.34315,190.77187 L 628.533,162.68893 C 628.533,162.68893 625.56265,148.37737 642.57452,147.83732 L 670.11743,146.75721 C 670.11743,146.75721 681.72868,145.13703 679.2984,160.52866 L 671.4676,194.01228 C 671.4676,194.01228 651.48542,262.59958 609.3609,309.5846 C 609.3609,309.5846 552.9249,355.21942 502.4296,366.29061 C 502.4296,366.29061 485.68779,372.23126 445.4535,373.58144 L 349.85202,375.86671 C 349.85202,375.86671 345.85264,380.74992 346.08288,385.46271 L 345.12781,394.57255 C 345.12781,394.57255 336.70589,395.4736 333.41139,395.55892 L 310.68925,395.55892 L 300.98805,390.32318 C 300.98805,390.32318 291.8071,382.2223 281.81601,384.38256 L 221.59959,384.65261 L 180.2852,386.27274 C 180.2852,386.27274 161.65323,385.46271 154.63245,402.47446 C 154.63245,402.47446 143.70623,423.70454 134.42303,477.53919 L 140.46862,483.78999 C 140.46862,483.78999 143.75175,485.72297 144.35154,493.48856 L 145.51777,552.0814 C 145.51777,552.0814 145.45152,560.71138 133.03009,576.91313 C 133.03009,576.91313 124.37277,587.95117 130.04328,610.09356 C 130.04328,610.09356 138.7007,636.31942 162.46329,654.41137 C 162.46329,654.41137 180.01513,670.61309 191.6264,674.93354 C 191.6264,674.93354 205.93792,680.33415 204.04778,693.83555 C 204.04778,693.83555 204.04778,703.82663 190.27624,703.28655 L 116.34799,695.18571 C 116.34799,695.18571 102.80682,695.4359 106.85727,682.20447 C 106.85727,682.20447 115.06333,666.1136 104.50658,653.97079 z " id="path4167" sodipodi:nodetypes="ccccccccccccccccccccccccccccccccccccccccccccccccccccccccc"/>
  </g>
</svg>
